<?xml version="1.0" encoding="UTF-8" standalone="no"?>
<svg
   xmlns:dc="http://purl.org/dc/elements/1.1/"
   xmlns:cc="http://creativecommons.org/ns#"
   xmlns:rdf="http://www.w3.org/1999/02/22-rdf-syntax-ns#"
   xmlns:svg="http://www.w3.org/2000/svg"
   xmlns="http://www.w3.org/2000/svg"
   xmlns:sodipodi="http://sodipodi.sourceforge.net/DTD/sodipodi-0.dtd"
   xmlns:inkscape="http://www.inkscape.org/namespaces/inkscape"
   width="210mm"
   height="297mm"
   viewBox="0 0 210 297"
   version="1.1"
   id="svg8"
   inkscape:version="1.0.1 (3bc2e813f5, 2020-09-07)"
   sodipodi:docname="killer.svg">
  <defs
     id="defs2" />
  <sodipodi:namedview
     id="base"
     pagecolor="#ffffff"
     bordercolor="#666666"
     borderopacity="1.0"
     inkscape:pageopacity="0.0"
     inkscape:pageshadow="2"
     inkscape:zoom="0.49497475"
     inkscape:cx="120.50695"
     inkscape:cy="569.42365"
     inkscape:document-units="mm"
     inkscape:current-layer="layer1"
     inkscape:document-rotation="0"
     showgrid="false"
     inkscape:window-width="1920"
     inkscape:window-height="1017"
     inkscape:window-x="1582"
     inkscape:window-y="1443"
     inkscape:window-maximized="1" />
  <metadata
     id="metadata5">
    <rdf:RDF>
      <cc:Work
         rdf:about="">
        <dc:format>image/svg+xml</dc:format>
        <dc:type
           rdf:resource="http://purl.org/dc/dcmitype/StillImage" />
        <dc:title></dc:title>
      </cc:Work>
    </rdf:RDF>
  </metadata>
  <g
     inkscape:label="Vrstva 1"
     inkscape:groupmode="layer"
     id="layer1">
    <path
       style="fill:#000000;stroke-width:0.0846667"
       d="m 72.498196,126.51446 c 0.128442,-0.0697 0.572577,-0.64356 1.029521,-1.3301 0.711771,-1.06943 0.987422,-1.43584 1.45508,-1.93421 0.06921,-0.0737 0.12584,-0.16194 0.12584,-0.19596 0,-0.034 0.111755,-0.1559 0.248346,-0.27084 0.13659,-0.11493 0.404846,-0.51839 0.596124,-0.89658 0.191277,-0.37819 0.441471,-0.79897 0.555987,-0.93506 0.114515,-0.1361 0.20821,-0.2971 0.20821,-0.3578 0,-0.0607 0.155417,-0.41665 0.345372,-0.79102 0.25484,-0.50225 0.431912,-0.73794 0.675518,-0.89915 0.18158,-0.12017 0.357248,-0.21848 0.390371,-0.21848 0.0655,0 1.17641,-0.64732 1.382739,-0.80572 0.132765,-0.10192 0.977519,-0.40869 1.372258,-0.49832 0.139328,-0.0316 0.327472,-0.19293 0.479634,-0.41118 0.340835,-0.48887 1.156298,-1.26311 1.619441,-1.53758 0.20955,-0.12419 0.43815,-0.26211 0.508,-0.30648 0.279728,-0.17773 2.681287,-1.18206 2.826542,-1.18206 0.02963,0 0.34876,-0.14484 0.709169,-0.32186 0.360409,-0.17702 0.883889,-0.41266 1.163289,-0.52364 0.2794,-0.11098 0.650118,-0.28999 0.823818,-0.39781 0.173699,-0.10781 0.371786,-0.19602 0.440191,-0.19602 0.144762,0 0.40137,-0.33014 0.855519,-1.10067 0.178401,-0.30268 0.558862,-0.91228 0.84547,-1.35466 0.286607,-0.44239 0.547581,-0.87732 0.579941,-0.96652 0.03236,-0.0892 0.231327,-0.43893 0.442149,-0.77718 0.510171,-0.81854 1.036388,-1.25429 2.786246,-2.30727 l 0.677333,-0.40759 -0.02385,-0.43923 c -0.0443,-0.81585 -0.165625,-1.02704 -0.798807,-1.39043 -0.508894,-0.29205 -0.573764,-0.35916 -0.617264,-0.63857 -0.139314,-0.89483 -0.125929,-0.87903 -1.162726,-1.3734 -0.524346,-0.25003 -1.0479,-0.49114 -1.163454,-0.53579 -0.115553,-0.0447 -0.416927,-0.21796 -0.669718,-0.38511 -0.252791,-0.16715 -0.634497,-0.39934 -0.848236,-0.51596 -0.213738,-0.11663 -0.674365,-0.436893 -1.023615,-0.711693 -0.848501,-0.66762 -3.121325,-2.96309 -3.386667,-3.420404 -0.116416,-0.200643 -0.297091,-0.486393 -0.401497,-0.635 -0.39863,-0.567385 -0.487288,-0.842069 -0.483454,-1.497861 0.0039,-0.670901 0.26075,-1.807513 0.549814,-2.433244 0.09119,-0.197401 0.165804,-0.388848 0.165804,-0.425437 0,-0.180132 0.952678,-1.027244 1.450741,-1.289986 0.308958,-0.162983 1.109058,-0.605173 1.778,-0.982645 1.33089,-0.750996 2.249869,-1.218688 2.394623,-1.218688 0.05114,0 0.27191,-0.09525 0.490598,-0.211667 0.218688,-0.116418 0.446985,-0.211901 0.507326,-0.212188 0.06034,-2.92e-4 0.204962,-0.04951 0.321379,-0.109382 0.116417,-0.05987 0.506524,-0.215751 0.866905,-0.346396 0.930545,-0.33734 1.080428,-0.473873 1.080428,-0.984182 0,-0.226706 0.03266,-0.432376 0.07257,-0.457043 0.03992,-0.02467 0.118032,-0.284093 0.173593,-0.576497 0.308695,-1.624588 0.362807,-1.791141 0.681628,-2.09798 1.019498,-0.981175 1.519318,-1.378905 2.014378,-1.602935 0.10478,-0.04741 0.1905,-0.12525 0.1905,-0.172969 0,-0.04772 0.0437,-0.08676 0.0971,-0.08676 0.0534,0 0.29797,-0.13335 0.54352,-0.296334 0.24554,-0.162983 0.50199,-0.296333 0.569891,-0.296333 0.0679,0 0.172709,-0.05935 0.23291,-0.131892 0.194778,-0.234696 0.68708,-0.379006 1.343646,-0.393877 0.64854,-0.01469 1.95225,0.201478 2.41996,0.401251 0.68718,0.293517 0.95293,0.32658 1.46051,0.181713 0.26775,-0.07642 0.77252,-0.220235 1.1217,-0.319589 0.34918,-0.09935 0.82543,-0.186767 1.05834,-0.19425 0.2329,-0.0075 0.46255,-0.03813 0.51035,-0.06811 0.25414,-0.159398 1.46944,0.316637 2.59079,1.014821 1.33673,0.832282 1.81247,1.438604 1.90301,2.42538 0.041,0.447356 0.24295,1.562538 0.37834,2.089707 0.0432,0.168385 0.0786,0.398033 0.0786,0.510328 0,0.337464 0.21854,0.546444 0.73658,0.704355 0.2701,0.08233 0.76726,0.242831 1.1048,0.356662 0.33755,0.113833 0.64862,0.185401 0.69127,0.15904 0.0427,-0.02636 0.0903,-0.01423 0.10595,0.02697 0.0156,0.04119 0.35225,0.236235 0.74806,0.433427 1.77253,0.883053 3.83754,2.270157 5.0244,3.374976 0.60295,0.561276 0.8659,1.613403 0.79968,3.199777 -0.0394,0.94418 -0.0598,1.038759 -0.34469,1.596311 -0.21573,0.422244 -0.50537,0.791373 -1.00726,1.283691 -1.24768,1.22388 -1.58344,1.50647 -2.60946,2.19621 -1.52233,1.023393 -2.5264,1.623073 -3.38357,2.020823 -0.47034,0.21826 -0.56662,0.35327 -0.80594,1.13022 -0.36823,1.19547 -0.35759,1.17851 -0.94527,1.50716 -0.60554,0.33864 -0.71164,0.48093 -0.73401,0.98438 l -0.0155,0.34959 0.67733,0.37512 c 1.14291,0.63297 2.26723,1.39639 2.58047,1.75214 0.16401,0.18627 0.42202,0.4663 0.57336,0.6223 0.15135,0.156 0.27517,0.29705 0.27517,0.31345 0,0.0657 0.76726,1.12221 0.88733,1.22187 0.0708,0.0587 0.12867,0.14288 0.12867,0.18699 0,0.0441 0.10742,0.23948 0.23872,0.43414 0.13129,0.19465 0.42278,0.67777 0.64776,1.07359 0.22497,0.39581 0.43188,0.73871 0.45978,0.762 0.0279,0.0233 0.0624,0.0963 0.0766,0.16229 0.0359,0.16644 0.42546,0.82119 0.54946,0.92349 0.0561,0.0463 0.33059,0.16147 0.60999,0.25597 1.61955,0.54777 2.66668,1.04052 4.27718,2.01269 0.87894,0.53057 2.86194,1.55622 3.00881,1.55622 0.0326,0 0.30494,0.12096 0.60525,0.26881 0.57959,0.28533 1.06793,0.78361 1.17119,1.19503 0.0336,0.13378 0.16003,0.28761 0.2929,0.35632 0.1286,0.0665 0.25468,0.17525 0.28016,0.24167 0.0255,0.0664 0.36639,0.30522 0.75755,0.53067 0.39116,0.22544 0.80355,0.52655 0.91642,0.66914 0.11287,0.14258 0.51001,0.53973 0.88255,0.88255 0.37253,0.34282 0.69095,0.6841 0.70761,0.7584 0.0166,0.0743 0.0591,0.17318 0.0943,0.21975 0.0352,0.0466 0.0887,0.30438 0.1188,0.57292 0.0301,0.26854 0.11096,0.64954 0.17965,0.84666 0.0687,0.19713 0.12541,0.44603 0.12609,0.55312 7.9e-4,0.10709 0.0612,0.31065 0.13447,0.45237 0.0733,0.14171 0.11238,0.27852 0.0869,0.30401 -0.0897,0.0897 0.23566,0.52037 0.42993,0.56913 0.10813,0.0271 0.19661,0.0841 0.19661,0.12663 0,0.0425 0.20955,0.29712 0.46566,0.5658 0.25611,0.26869 0.46566,0.55704 0.46566,0.64077 0,0.14629 -1.2167,0.15212 -31.0515,0.14886 -27.163862,-0.003 -31.023218,-0.0188 -30.825607,-0.12607 z"
       id="path889" />
  </g>
</svg>
