<?xml version="1.0" encoding="UTF-8" standalone="no"?>
<!-- Created with Inkscape (http://www.inkscape.org/) -->

<svg
   xmlns:dc="http://purl.org/dc/elements/1.1/"
   xmlns:cc="http://creativecommons.org/ns#"
   xmlns:rdf="http://www.w3.org/1999/02/22-rdf-syntax-ns#"
   xmlns:svg="http://www.w3.org/2000/svg"
   xmlns="http://www.w3.org/2000/svg"
   xmlns:sodipodi="http://sodipodi.sourceforge.net/DTD/sodipodi-0.dtd"
   xmlns:inkscape="http://www.inkscape.org/namespaces/inkscape"
   version="1.1"
   id="svg815"
   width="809"
   height="407"
   viewBox="0 0 809 407"
   sodipodi:docname="pig.svg"
   inkscape:version="0.92.2 (5c3e80d, 2017-08-06)">
  <metadata
     id="metadata821">
    <rdf:RDF>
      <cc:Work
         rdf:about="">
        <dc:format>image/svg+xml</dc:format>
        <dc:type
           rdf:resource="http://purl.org/dc/dcmitype/StillImage" />
        <dc:title></dc:title>
      </cc:Work>
    </rdf:RDF>
  </metadata>
  <defs
     id="defs819" />
  <sodipodi:namedview
     pagecolor="#ffffff"
     bordercolor="#666666"
     borderopacity="1"
     objecttolerance="10"
     gridtolerance="10"
     guidetolerance="10"
     inkscape:pageopacity="0"
     inkscape:pageshadow="2"
     inkscape:window-width="1920"
     inkscape:window-height="1017"
     id="namedview817"
     showgrid="false"
     inkscape:zoom="1.7169345"
     inkscape:cx="206.5672"
     inkscape:cy="226.28219"
     inkscape:window-x="-8"
     inkscape:window-y="-8"
     inkscape:window-maximized="1"
     inkscape:current-layer="svg815" />
  <path
     style="fill:#000000"
     d="m 162,319.52024 c 0,-5.66064 -4.60043,-13.76726 -12.75,-22.46737 -7.54957,-8.46166 -17.13418,-12.53239 -25.65318,-20.49922 -4.27028,-4.34195 -9.8308,-8.20239 -13.75043,-11.45249 -1.84052,-1.59437 -5.51745,-4.74973 -8.17097,-7.01192 -2.653527,-2.26219 -6.025763,-5.57021 -7.493863,-7.35115 -1.4681,-1.78095 -3.167384,-3.68809 -3.776187,-4.23809 -0.608803,-0.55 -2.411567,-2.8 -4.006142,-5 C 84.804652,239.3 82.4875,236.3796 81.25,235.01022 76.962642,229.0531 73.335151,221.99067 71.454334,216 c -6.965577,-17.73313 5.750993,-46.53988 13.065777,-60.59219 10.668424,-19.98627 21.218469,-32.90089 39.426439,-48.26305 11.32141,-9.551937 34.54453,-21.669512 50.86548,-26.541064 4.22838,-1.262108 13.29535,-3.95489 20.14881,-5.983961 24.32985,-7.20322 60.10187,-10.457525 83.13016,-7.56264 34.18294,2.553341 65.32346,14.303548 95.909,23.553259 16.42782,2.977079 32.89884,9.300258 48.5,12.958646 12.88613,2.92245 17.45449,1.35704 24.23634,-8.304899 5.46997,-7.79294 6.81732,-8.789476 13.68044,-10.11841 12.00322,-1.907774 24.95556,1.524376 29.43267,10.563632 2.0013,3.907178 3.15744,6.968207 4.07557,10.790677 0.52842,2.2 2.09236,7.15 3.47542,11 1.38305,3.85 2.53375,7.73082 2.5571,8.62405 0.08,3.06135 5.16717,10.87132 7.37952,11.32933 1.18962,0.24628 7.43897,0.95107 13.88746,1.56619 9.76931,0.93189 14.1625,0.84114 26.34401,-0.54424 8.04072,-0.91445 16.12179,-1.38081 17.95793,-1.03634 4.3807,0.82182 11.03027,4.63516 15.81975,9.07217 3.78405,3.50557 3.85953,3.71856 4.66998,13.17785 1.13877,13.29124 -1.32387,26.89385 -7.23531,39.96492 -2.81241,6.50465 -6.43687,9.87354 -11.17678,14.77644 -9.10711,9.38009 -17.78598,12.82439 -40.57731,16.10357 -11.46518,1.64958 -22.77106,4.00104 -32.9017,6.84307 -4.37576,1.22757 -6.60645,2.74988 -12,8.18931 -3.6438,3.6748 -7.64259,7.35573 -8.8862,8.17986 -1.24362,0.82412 -2.99604,3.04714 -3.89428,4.94004 -2.24178,4.72419 -25.48303,27.91518 -32.84461,32.77358 -11.23143,7.41236 -21.99506,15.57709 -24,18.20514 -1.1,1.44186 -3.0125,3.70256 -4.25,5.02377 -1.2375,1.32121 -2.25347,2.71924 -2.2577,3.10674 -7.99616,8.62899 -32.8369,11.10712 -43.3416,8.25428 -3.58036,-2.03051 -7.31371,-3.18734 -9.99439,-5.88965 -2.17834,-2.14417 -4.12741,-8.18833 -4.35742,-9.91008 -0.55845,-7.53634 -1.70665,-14.24698 -2.89181,-16.90113 -1.24148,-5.54766 -2.1204,-6.50406 -6.25271,-9.18647 -4.42513,-3.06347 -11.27162,-4.49012 -15.7494,-3.28179 -13.06254,3.52491 -19.58184,4.46662 -36.40497,5.2587 -24.47569,1.15237 -23.33323,1.17479 -40.28942,-0.79064 l -14.78943,-1.71427 -2.16161,2.16162 c -1.79069,1.79068 -2.18179,3.40933 -2.27915,9.4328 -0.0647,3.99915 -0.44643,8.62118 -0.8484,10.27118 0.55536,31.20677 -61.64758,40.44939 -64.63199,14.02024 z"
     id="path825"
     inkscape:connector-curvature="0"
     sodipodi:nodetypes="ccccccsscccssscccscccccssscsscccsscsscscccccccssccccc" />
</svg>
