<?xml version="1.0" encoding="utf-8"?>
<!-- Generator: Adobe Illustrator 24.1.0, SVG Export Plug-In . SVG Version: 6.00 Build 0)  -->
<svg version="1.1" id="Layer_1" xmlns="http://www.w3.org/2000/svg" xmlns:xlink="http://www.w3.org/1999/xlink" x="0px" y="0px"
	 viewBox="0 0 612 612" style="enable-background:new 0 0 612 612;" xml:space="preserve">
<style type="text/css">
	.st0{fill:#FFFFFF;}
</style>
<g>
	<path d="M580.98,302.92c7.62-0.32,14.56-1.6,12.72-5.35c-1.67-3.41-7.1-6.23-12.63-8.31c-2.16-121.08-82.95-223.02-193.62-257.19
		l2.42-6.88c0,0,3.9-6.86-10.54-7.08c-13.15-0.21-65.24-0.04-74.39,0c-9.15-0.03-61.23-0.2-74.39,0
		c-14.44,0.23-10.54,7.08-10.54,7.08l2.62,7.47C112.9,67.39,32.98,168.87,30.85,289.29c-5.51,2.09-10.89,4.89-12.55,8.28
		c-1.83,3.74,5.05,5.02,12.63,5.35c2.62,83.84,42.94,158.2,104.63,206.78c1.37,6.42-1.83,10.34-1.83,10.34l-20.85,34.28
		c-6.53,10.97,3.44,10.17,3.44,10.17h6.42c0,0,95.67-0.23,108.16,0c12.49,0.23,14.44,5.26,14.44,5.26l11.69,17.14
		c5.61,8.11,10.77,7.08,10.77,7.08h38.23h0.31h38.23c0,0,5.16,1.03,10.77-7.08L367,569.74c0,0,1.95-5.03,14.44-5.26
		c12.49-0.23,108.16,0,108.16,0h6.42c0,0,9.97,0.8,3.44-10.17l-20.85-34.28c0,0-3.33-4.09-1.73-10.75
		C538.26,460.69,578.37,386.52,580.98,302.92z"/>
	<g>
		<path class="st0" d="M50.48,285.02c4.81-109.74,79.06-201.51,180.03-232.67l-4.04-11.05C120.23,74.34,42.41,171.57,38.61,287.47
			C42.59,286.62,46.55,285.81,50.48,285.02z"/>
		<path class="st0" d="M562.16,285.03c3.93,0.79,7.89,1.6,11.87,2.45c-3.81-116.19-82.01-213.61-188.64-246.41l-4.04,11.06
			C482.71,83.05,557.34,175,562.16,285.03z"/>
		<path class="st0" d="M562.25,304.11c-2.34,78.03-39.73,147.27-97.06,192.55l5.95,10.28c60.82-47.41,100.53-120.45,102.89-202.83
			H562.25z"/>
		<path class="st0" d="M50.38,304.09h-11.8c2.37,82.83,42.52,156.21,103.89,203.6l5.94-10.26
			C90.54,452.17,52.73,382.57,50.38,304.09z"/>
		<polygon class="st0" points="306.32,27.47 306.01,27.47 229.34,27.47 241.89,34.5 306.01,34.5 306.32,34.5 370.44,34.5 
			382.99,27.47 		"/>
		<polygon class="st0" points="231.41,33.3 241.55,42.38 248.94,61.58 241.2,59.86 		"/>
		<polygon class="st0" points="380.22,33.3 370.08,42.38 362.69,61.58 370.42,59.86 		"/>
		<path class="st0" d="M200.58,84.18c-0.07-1.83,0.08-8.92,5.89-15.2c0.09-0.1,0.19-0.19,0.29-0.29
			C122.33,105.28,62.1,186.96,56.67,283.25c3.94-0.88,7.84-1.71,11.7-2.5c6.02-86.36,58.26-160,132.21-196.53V84.18z"/>
		<path class="st0" d="M382.56,60.48c0.59,0,1.17,0.01,1.74,0.03c-1.71-0.56-3.42-1.1-5.15-1.63l-0.59,1.74
			C379.84,60.53,381.17,60.48,382.56,60.48z"/>
		<path class="st0" d="M406.6,69.01c4.68,5.35,4.78,11.28,4.68,13.09v1.75c74.42,36.44,127.02,110.39,132.98,197.14
			c3.85,0.76,7.76,1.57,11.69,2.42C550.59,187.32,490.68,105.77,406.6,69.01z"/>
		<path class="st0" d="M454.52,153.82c-0.56-0.53-1.41-0.62-2.07-0.23l-25.46,14.97c-1.04,0.61-1.15,2.06-0.22,2.82
			c2.56,2.1,7.08,6.02,10.02,9.82c0.7,0.9,2.06,0.89,2.75-0.02l17.35-23.03c0.53-0.7,0.45-1.69-0.19-2.29L454.52,153.82z"/>
		<path class="st0" d="M184.95,168.56l-25.46-14.97c-0.67-0.39-1.51-0.3-2.07,0.23l-2.17,2.04c-0.64,0.6-0.72,1.59-0.19,2.29
			l17.35,23.03c0.69,0.91,2.05,0.92,2.75,0.02c2.94-3.81,7.46-7.73,10.02-9.82C186.11,170.62,185.99,169.17,184.95,168.56z"/>
		<polygon class="st0" points="266.18,110.76 266.18,127.1 275.69,154.41 275.69,139.1 		"/>
		<polygon class="st0" points="351.88,92.71 351.88,110.76 336.41,154.41 336.41,138.47 		"/>
		<polygon class="st0" points="236.96,556.94 131.56,556.94 203.51,513.29 		"/>
		<polyline class="st0" points="410.77,513.29 377.32,556.94 482.73,556.94 		"/>
		<polygon class="st0" points="261.94,502.78 276.15,474.9 259.96,431.51 247.27,452.51 		"/>
		<polygon class="st0" points="351.81,502.78 337.6,474.9 353.79,431.51 366.47,452.51 		"/>
		<polygon class="st0" points="344.9,504.1 268.79,504.1 279.53,483.61 334.17,483.61 		"/>
		<polygon class="st0" points="401.05,507.13 344.56,584.82 269.85,584.82 213.36,507.13 240.17,464.39 255.29,511.23 
			359.12,511.23 374.24,464.39 		"/>
		<polygon class="st0" points="344.51,419.03 329.96,462.45 282.68,462.45 268.12,419.03 306.32,355.85 		"/>
		<polygon class="st0" points="300.9,252.56 300.9,346.36 207.52,498.32 128.46,545.51 		"/>
		<polygon class="st0" points="312.26,252.56 312.26,346.36 405.64,498.32 484.69,545.51 		"/>
		<polygon class="st0" points="207.75,261.58 287.26,261.58 242,337.35 		"/>
		<polygon class="st0" points="404.89,261.58 325.38,261.58 370.64,337.35 		"/>
		<polygon class="st0" points="180.17,315.67 175.78,304.32 71.98,304.32 79.7,315.67 		"/>
		<polygon class="st0" points="186.63,332.36 182.1,320.66 69.11,320.66 76.9,332.36 		"/>
		<polygon class="st0" points="193.13,349.18 188.56,337.35 94.47,337.35 102.52,349.18 		"/>
		<polygon class="st0" points="199.62,365.94 195.07,354.17 94.47,354.17 102.34,365.94 		"/>
		<polygon class="st0" points="206.21,383 201.55,370.94 117.33,370.94 125.54,383 		"/>
		<polygon class="st0" points="205.13,399.7 209.81,392.29 208.15,387.99 118.26,387.99 126.63,399.7 		"/>
		<polygon class="st0" points="140.31,404.7 148.28,416.4 194.57,416.4 201.97,404.7 		"/>
		<polygon class="st0" points="143.01,421.46 151.15,433.16 185.12,433.16 192.52,421.46 		"/>
		<polygon class="st0" points="163.64,438.21 171.14,449.92 174.62,449.92 182.01,438.21 		"/>
		<polygon class="st0" points="172.11,454.68 169.14,460.62 167.73,460.62 163.64,454.68 		"/>
		<polygon class="st0" points="433.79,315.67 438.18,304.32 541.98,304.32 534.25,315.67 		"/>
		<polygon class="st0" points="427.33,332.36 431.85,320.66 544.85,320.66 537.05,332.36 		"/>
		<polygon class="st0" points="420.83,349.18 425.4,337.35 519.49,337.35 511.44,349.18 		"/>
		<polygon class="st0" points="414.34,365.94 418.89,354.17 519.49,354.17 511.62,365.94 		"/>
		<polygon class="st0" points="407.74,383 412.41,370.94 496.63,370.94 488.42,383 		"/>
		<polygon class="st0" points="408.83,399.7 404.15,392.29 405.81,387.99 495.69,387.99 487.33,399.7 		"/>
		<polygon class="st0" points="473.64,404.7 465.68,416.4 419.39,416.4 411.99,404.7 		"/>
		<polygon class="st0" points="470.95,421.46 462.81,433.16 428.84,433.16 421.44,421.46 		"/>
		<polygon class="st0" points="450.32,438.21 442.82,449.92 439.34,449.92 431.94,438.21 		"/>
		<polygon class="st0" points="441.84,454.68 444.82,460.62 446.23,460.62 450.32,454.68 		"/>
		<polyline class="st0" points="200.3,306.26 185.52,306.26 196.24,333.45 224.59,333.45 218.75,319.17 205.92,318.95 200.3,306.26 
					"/>
		<polygon class="st0" points="219.09,354.17 214.01,341.22 199.31,341.22 209.81,367.84 224.13,367.84 232.15,354.17 		"/>
		<polyline class="st0" points="412.72,306.26 427.5,306.26 416.78,333.45 388.43,333.45 394.28,319.17 407.1,318.95 412.72,306.26 
					"/>
		<polygon class="st0" points="393.93,354.17 399.01,341.22 413.71,341.22 403.21,367.84 388.89,367.84 380.87,354.17 		"/>
		<path class="st0" d="M24.31,297.57h171.17l-10.83-24.85C184.66,272.72,106.46,274.44,24.31,297.57z"/>
		<path class="st0" d="M588.29,297.57H417.12l10.83-24.85C427.94,272.72,506.14,274.44,588.29,297.57z"/>
		<path class="st0" d="M200.58,169.69c-7.5,6.6-20.86,19.08-27.81,30.02c-0.66,1.04-2.16,1.09-2.87,0.08l-36.47-51.28
			c-0.49-0.68-0.41-1.62,0.18-2.21l12.72-12.89c0.55-0.55,1.4-0.68,2.08-0.3l52.17,28.9v-6.53h14.82c-1.3-0.8-2.47-1.65-3.55-2.55
			c-1.07,0.7-2.14,1.41-3.2,2.13l-33.49-41.64c3.87-2.76,7.85-5.39,11.9-7.91l13.52,19.88V88.45
			C129.44,124.49,79.34,195.87,73.52,279.42c30.63-5.97,58.2-9.21,78.09-10.97c6.15-34.79,23.84-65.6,48.97-88.39V169.69z
			 M161.99,131.41l8.85-7.4c0.65-0.54,1.62-0.46,2.17,0.18l24.68,28.75c0.15,0.18-0.06,0.44-0.27,0.32l-35.31-20.41
			C161.59,132.54,161.52,131.8,161.99,131.41z M125.97,170.96l6.43-9.56c0.34-0.51,1.09-0.53,1.45-0.03l24.12,32.83
			c0.14,0.19-0.09,0.43-0.29,0.3l-31.3-21.4C125.68,172.62,125.5,171.67,125.97,170.96z M81.41,274.59
			c0.56-5.68,1.34-11.31,2.32-16.86l49.57,8.45L81.41,274.59z M137.91,259.19l-52.9-8.11c1.03-4.95,2.23-9.85,3.57-14.68l51.65,13.6
			C139.37,253.04,138.6,256.1,137.91,259.19z M142.23,243.52L90.5,229.9c1.45-4.63,3.05-9.19,4.78-13.68l49.71,19.51
			C144.01,238.29,143.09,240.89,142.23,243.52z M147.97,228.44l-49.75-19.52c1.87-4.39,3.89-8.71,6.03-12.95L152,219.85
			C150.58,222.67,149.24,225.53,147.97,228.44z M156.57,211.36l-47.8-23.9c2.29-4.1,4.7-8.13,7.23-12.07l44.97,28.74
			C159.45,206.5,157.98,208.91,156.57,211.36z"/>
		<path class="st0" d="M380.17,93.03c0,0,0,0.05,0,0.13V93.03z"/>
		<path class="st0" d="M411.68,88.58v37.18l13.77-20.25c4.05,2.52,8.02,5.15,11.9,7.91l-33.49,41.64c-2.75-1.89-5.55-3.7-8.41-5.43
			l13.59-19.98h-12.47c0,0.7,0,1.48,0,2.25c0,2.25-1.03,2.74-1.03,2.74s-7.18,6.94-10.23,9.9v11.43h26.38v5.87l51.86-28.73
			c0.68-0.38,1.53-0.26,2.08,0.3l12.72,12.89c0.59,0.6,0.66,1.53,0.18,2.21l-36.47,51.28c-0.72,1.01-2.21,0.96-2.87-0.08
			c-6.85-10.79-19.94-23.08-27.49-29.74v10.33c25.03,22.8,42.64,53.56,48.74,88.29c20.1,1.81,47.62,5.13,78.08,11.13
			C532.79,196.14,482.76,124.71,411.68,88.58z M450.16,132.85l-35.31,20.41c-0.21,0.12-0.42-0.14-0.27-0.32l24.68-28.75
			c0.55-0.64,1.52-0.72,2.17-0.18l8.85,7.4C450.76,131.8,450.69,132.54,450.16,132.85z M454.3,194.2l24.12-32.83
			c0.36-0.5,1.11-0.48,1.45,0.03l6.43,9.56c0.47,0.7,0.29,1.66-0.41,2.13l-31.3,21.4C454.4,194.63,454.16,194.39,454.3,194.2z
			 M455.93,211.36c-1.41-2.45-2.88-4.86-4.41-7.23l44.97-28.74c2.54,3.94,4.94,7.97,7.23,12.07L455.93,211.36z M460.5,219.85
			l47.75-23.88c2.14,4.24,4.15,8.56,6.03,12.95l-49.75,19.52C463.26,225.53,461.92,222.67,460.5,219.85z M467.51,235.72l49.71-19.51
			c1.73,4.49,3.34,9.05,4.78,13.68l-51.73,13.63C469.41,240.89,468.49,238.29,467.51,235.72z M472.27,250.01l51.65-13.6
			c1.35,4.83,2.55,9.72,3.57,14.68l-52.9,8.11C473.9,256.1,473.13,253.04,472.27,250.01z M528.77,257.74
			c0.98,5.55,1.75,11.17,2.32,16.86l-51.88-8.4L528.77,257.74z"/>
		<path class="st0" d="M229.46,162.29H207.4v50.27c0,0-0.69,20.91,25.66,20.91s26.85-11.31,26.85-20.79v-53.36
			c0,0,1.45-9.48-12.99-17.25s-17.47-9.03-17.47-19.88V89.28c0,0-0.13-5.42,4.22-5.31c4.35,0.11,4.18,5.65,4.18,5.65v32.68h22.06
			l0.04-38.39c0,0,1.37-17.71-26.28-17.59S207.4,84.03,207.4,84.03v45.25c0,0-0.11,13.48,11.92,20.62
			c12.03,7.14,18.54,6.91,18.54,16.74v42.96c0,0,0.46,6.74-4.18,6.62c-4.38-0.12-4.22-1.29-4.22-6.96V162.29z"/>
		<path class="st0" d="M329.23,83.17v39.08h-17.85V93.28c0,0,0.43-5.2-4.24-5.2c0,0-4.16-0.68-4.16,5.31v110.2
			c0,0-0.31,6.69,4.05,6.68c4.35,0,4.35-6.63,4.35-6.63v-35.53c0,0,0.06-1.57-1.58-1.57h-2.21v-19.82h21.64v83.32h-7.14l-2.46-7.31
			c0,0-0.92-1.71-1.89,0.46s-3.81,8.8-14.76,9.6s-19.95-6.05-19.95-17.6v-133c0,0-1.74-15.31,23.11-15.31
			C330.97,66.89,329.23,83.17,329.23,83.17z"/>
		<path class="st0" d="M358.64,81.89v137.19c0,0-0.49,13.37,23.74,13.37c24.23,0,22.47-13.11,22.47-13.11v-56.56H387v43.36
			c0,0,0.35,4.01-4.03,4.01s-4.5-4.49-4.5-4.49V93.2c0,0,0.16-5.14,4.34-5.14s4.18,4.97,4.18,4.97v29.82h17.85V81.89
			c0,0,1.62-15-22.3-15S358.64,81.89,358.64,81.89z"/>
	</g>
</g>
</svg>
