<?xml version="1.0" encoding="UTF-8" standalone="no"?>
<!-- Generator: Adobe Illustrator 24.1.0, SVG Export Plug-In . SVG Version: 6.00 Build 0)  -->

<svg
   xmlns:dc="http://purl.org/dc/elements/1.1/"
   xmlns:cc="http://creativecommons.org/ns#"
   xmlns:rdf="http://www.w3.org/1999/02/22-rdf-syntax-ns#"
   xmlns:svg="http://www.w3.org/2000/svg"
   xmlns="http://www.w3.org/2000/svg"
   xmlns:sodipodi="http://sodipodi.sourceforge.net/DTD/sodipodi-0.dtd"
   xmlns:inkscape="http://www.inkscape.org/namespaces/inkscape"
   version="1.1"
   id="Layer_1"
   x="0px"
   y="0px"
   viewBox="0 0 612 612"
   style="enable-background:new 0 0 612 612;"
   xml:space="preserve"
   sodipodi:docname="sgc_logo-negative.svg"
   inkscape:version="0.92.4 (5da689c313, 2019-01-14)"><metadata
   id="metadata129"><rdf:RDF><cc:Work
       rdf:about=""><dc:format>image/svg+xml</dc:format><dc:type
         rdf:resource="http://purl.org/dc/dcmitype/StillImage" /><dc:title></dc:title></cc:Work></rdf:RDF></metadata><defs
   id="defs127" /><sodipodi:namedview
   pagecolor="#ffffff"
   bordercolor="#666666"
   borderopacity="1"
   objecttolerance="10"
   gridtolerance="10"
   guidetolerance="10"
   inkscape:pageopacity="0"
   inkscape:pageshadow="2"
   inkscape:window-width="1920"
   inkscape:window-height="1017"
   id="namedview125"
   showgrid="false"
   inkscape:zoom="1.5424837"
   inkscape:cx="235.53661"
   inkscape:cy="233.55487"
   inkscape:window-x="-8"
   inkscape:window-y="-8"
   inkscape:window-maximized="1"
   inkscape:current-layer="Layer_1" />
<style
   type="text/css"
   id="style2">
	.st0{fill:#FFFFFF;}
</style>
<g
   id="g122">
	
	<g
   id="g120">
		<path
   class="st0"
   d="M50.48,285.02c4.81-109.74,79.06-201.51,180.03-232.67l-4.04-11.05C120.23,74.34,42.41,171.57,38.61,287.47    C42.59,286.62,46.55,285.81,50.48,285.02z"
   id="path6" />
		<path
   class="st0"
   d="M562.16,285.03c3.93,0.79,7.89,1.6,11.87,2.45c-3.81-116.19-82.01-213.61-188.64-246.41l-4.04,11.06    C482.71,83.05,557.34,175,562.16,285.03z"
   id="path8" />
		<path
   class="st0"
   d="M562.25,304.11c-2.34,78.03-39.73,147.27-97.06,192.55l5.95,10.28c60.82-47.41,100.53-120.45,102.89-202.83    H562.25z"
   id="path10" />
		<path
   class="st0"
   d="M50.38,304.09h-11.8c2.37,82.83,42.52,156.21,103.89,203.6l5.94-10.26    C90.54,452.17,52.73,382.57,50.38,304.09z"
   id="path12" />
		<polygon
   class="st0"
   points="306.32,27.47 306.01,27.47 229.34,27.47 241.89,34.5 306.01,34.5 306.32,34.5 370.44,34.5     382.99,27.47   "
   id="polygon14" />
		<polygon
   class="st0"
   points="231.41,33.3 241.55,42.38 248.94,61.58 241.2,59.86   "
   id="polygon16" />
		<polygon
   class="st0"
   points="380.22,33.3 370.08,42.38 362.69,61.58 370.42,59.86   "
   id="polygon18" />
		<path
   class="st0"
   d="M200.58,84.18c-0.07-1.83,0.08-8.92,5.89-15.2c0.09-0.1,0.19-0.19,0.29-0.29    C122.33,105.28,62.1,186.96,56.67,283.25c3.94-0.88,7.84-1.71,11.7-2.5c6.02-86.36,58.26-160,132.21-196.53V84.18z"
   id="path20" />
		<path
   class="st0"
   d="M382.56,60.48c0.59,0,1.17,0.01,1.74,0.03c-1.71-0.56-3.42-1.1-5.15-1.63l-0.59,1.74    C379.84,60.53,381.17,60.48,382.56,60.48z"
   id="path22" />
		<path
   class="st0"
   d="M406.6,69.01c4.68,5.35,4.78,11.28,4.68,13.09v1.75c74.42,36.44,127.02,110.39,132.98,197.14    c3.85,0.76,7.76,1.57,11.69,2.42C550.59,187.32,490.68,105.77,406.6,69.01z"
   id="path24" />
		<path
   class="st0"
   d="M454.52,153.82c-0.56-0.53-1.41-0.62-2.07-0.23l-25.46,14.97c-1.04,0.61-1.15,2.06-0.22,2.82    c2.56,2.1,7.08,6.02,10.02,9.82c0.7,0.9,2.06,0.89,2.75-0.02l17.35-23.03c0.53-0.7,0.45-1.69-0.19-2.29L454.52,153.82z"
   id="path26" />
		<path
   class="st0"
   d="M184.95,168.56l-25.46-14.97c-0.67-0.39-1.51-0.3-2.07,0.23l-2.17,2.04c-0.64,0.6-0.72,1.59-0.19,2.29    l17.35,23.03c0.69,0.91,2.05,0.92,2.75,0.02c2.94-3.81,7.46-7.73,10.02-9.82C186.11,170.62,185.99,169.17,184.95,168.56z"
   id="path28" />
		<polygon
   class="st0"
   points="266.18,110.76 266.18,127.1 275.69,154.41 275.69,139.1   "
   id="polygon30" />
		<polygon
   class="st0"
   points="351.88,92.71 351.88,110.76 336.41,154.41 336.41,138.47   "
   id="polygon32" />
		<polygon
   class="st0"
   points="236.96,556.94 131.56,556.94 203.51,513.29   "
   id="polygon34" />
		<polyline
   class="st0"
   points="410.77,513.29 377.32,556.94 482.73,556.94   "
   id="polyline36" />
		<polygon
   class="st0"
   points="261.94,502.78 276.15,474.9 259.96,431.51 247.27,452.51   "
   id="polygon38" />
		<polygon
   class="st0"
   points="351.81,502.78 337.6,474.9 353.79,431.51 366.47,452.51   "
   id="polygon40" />
		<polygon
   class="st0"
   points="344.9,504.1 268.79,504.1 279.53,483.61 334.17,483.61   "
   id="polygon42" />
		<polygon
   class="st0"
   points="401.05,507.13 344.56,584.82 269.85,584.82 213.36,507.13 240.17,464.39 255.29,511.23     359.12,511.23 374.24,464.39   "
   id="polygon44" />
		<polygon
   class="st0"
   points="344.51,419.03 329.96,462.45 282.68,462.45 268.12,419.03 306.32,355.85   "
   id="polygon46" />
		<polygon
   class="st0"
   points="300.9,252.56 300.9,346.36 207.52,498.32 128.46,545.51   "
   id="polygon48" />
		<polygon
   class="st0"
   points="312.26,252.56 312.26,346.36 405.64,498.32 484.69,545.51   "
   id="polygon50" />
		<polygon
   class="st0"
   points="207.75,261.58 287.26,261.58 242,337.35   "
   id="polygon52" />
		<polygon
   class="st0"
   points="404.89,261.58 325.38,261.58 370.64,337.35   "
   id="polygon54" />
		<polygon
   class="st0"
   points="180.17,315.67 175.78,304.32 71.98,304.32 79.7,315.67   "
   id="polygon56" />
		<polygon
   class="st0"
   points="186.63,332.36 182.1,320.66 69.11,320.66 76.9,332.36   "
   id="polygon58" />
		<polygon
   class="st0"
   points="193.13,349.18 188.56,337.35 94.47,337.35 102.52,349.18   "
   id="polygon60" />
		<polygon
   class="st0"
   points="199.62,365.94 195.07,354.17 94.47,354.17 102.34,365.94   "
   id="polygon62" />
		<polygon
   class="st0"
   points="206.21,383 201.55,370.94 117.33,370.94 125.54,383   "
   id="polygon64" />
		<polygon
   class="st0"
   points="205.13,399.7 209.81,392.29 208.15,387.99 118.26,387.99 126.63,399.7   "
   id="polygon66" />
		<polygon
   class="st0"
   points="140.31,404.7 148.28,416.4 194.57,416.4 201.97,404.7   "
   id="polygon68" />
		<polygon
   class="st0"
   points="143.01,421.46 151.15,433.16 185.12,433.16 192.52,421.46   "
   id="polygon70" />
		<polygon
   class="st0"
   points="163.64,438.21 171.14,449.92 174.62,449.92 182.01,438.21   "
   id="polygon72" />
		<polygon
   class="st0"
   points="172.11,454.68 169.14,460.62 167.73,460.62 163.64,454.68   "
   id="polygon74" />
		<polygon
   class="st0"
   points="433.79,315.67 438.18,304.32 541.98,304.32 534.25,315.67   "
   id="polygon76" />
		<polygon
   class="st0"
   points="427.33,332.36 431.85,320.66 544.85,320.66 537.05,332.36   "
   id="polygon78" />
		<polygon
   class="st0"
   points="420.83,349.18 425.4,337.35 519.49,337.35 511.44,349.18   "
   id="polygon80" />
		<polygon
   class="st0"
   points="414.34,365.94 418.89,354.17 519.49,354.17 511.62,365.94   "
   id="polygon82" />
		<polygon
   class="st0"
   points="407.74,383 412.41,370.94 496.63,370.94 488.42,383   "
   id="polygon84" />
		<polygon
   class="st0"
   points="408.83,399.7 404.15,392.29 405.81,387.99 495.69,387.99 487.33,399.7   "
   id="polygon86" />
		<polygon
   class="st0"
   points="473.64,404.7 465.68,416.4 419.39,416.4 411.99,404.7   "
   id="polygon88" />
		<polygon
   class="st0"
   points="470.95,421.46 462.81,433.16 428.84,433.16 421.44,421.46   "
   id="polygon90" />
		<polygon
   class="st0"
   points="450.32,438.21 442.82,449.92 439.34,449.92 431.94,438.21   "
   id="polygon92" />
		<polygon
   class="st0"
   points="441.84,454.68 444.82,460.62 446.23,460.62 450.32,454.68   "
   id="polygon94" />
		<polyline
   class="st0"
   points="200.3,306.26 185.52,306.26 196.24,333.45 224.59,333.45 218.75,319.17 205.92,318.95 200.3,306.26       "
   id="polyline96" />
		<polygon
   class="st0"
   points="219.09,354.17 214.01,341.22 199.31,341.22 209.81,367.84 224.13,367.84 232.15,354.17   "
   id="polygon98" />
		<polyline
   class="st0"
   points="412.72,306.26 427.5,306.26 416.78,333.45 388.43,333.45 394.28,319.17 407.1,318.95 412.72,306.26       "
   id="polyline100" />
		<polygon
   class="st0"
   points="393.93,354.17 399.01,341.22 413.71,341.22 403.21,367.84 388.89,367.84 380.87,354.17   "
   id="polygon102" />
		<path
   class="st0"
   d="M24.31,297.57h171.17l-10.83-24.85C184.66,272.72,106.46,274.44,24.31,297.57z"
   id="path104" />
		<path
   class="st0"
   d="M588.29,297.57H417.12l10.83-24.85C427.94,272.72,506.14,274.44,588.29,297.57z"
   id="path106" />
		<path
   class="st0"
   d="M200.58,169.69c-7.5,6.6-20.86,19.08-27.81,30.02c-0.66,1.04-2.16,1.09-2.87,0.08l-36.47-51.28    c-0.49-0.68-0.41-1.62,0.18-2.21l12.72-12.89c0.55-0.55,1.4-0.68,2.08-0.3l52.17,28.9v-6.53h14.82c-1.3-0.8-2.47-1.65-3.55-2.55    c-1.07,0.7-2.14,1.41-3.2,2.13l-33.49-41.64c3.87-2.76,7.85-5.39,11.9-7.91l13.52,19.88V88.45    C129.44,124.49,79.34,195.87,73.52,279.42c30.63-5.97,58.2-9.21,78.09-10.97c6.15-34.79,23.84-65.6,48.97-88.39V169.69z     M161.99,131.41l8.85-7.4c0.65-0.54,1.62-0.46,2.17,0.18l24.68,28.75c0.15,0.18-0.06,0.44-0.27,0.32l-35.31-20.41    C161.59,132.54,161.52,131.8,161.99,131.41z M125.97,170.96l6.43-9.56c0.34-0.51,1.09-0.53,1.45-0.03l24.12,32.83    c0.14,0.19-0.09,0.43-0.29,0.3l-31.3-21.4C125.68,172.62,125.5,171.67,125.97,170.96z M81.41,274.59    c0.56-5.68,1.34-11.31,2.32-16.86l49.57,8.45L81.41,274.59z M137.91,259.19l-52.9-8.11c1.03-4.95,2.23-9.85,3.57-14.68l51.65,13.6    C139.37,253.04,138.6,256.1,137.91,259.19z M142.23,243.52L90.5,229.9c1.45-4.63,3.05-9.19,4.78-13.68l49.71,19.51    C144.01,238.29,143.09,240.89,142.23,243.52z M147.97,228.44l-49.75-19.52c1.87-4.39,3.89-8.71,6.03-12.95L152,219.85    C150.58,222.67,149.24,225.53,147.97,228.44z M156.57,211.36l-47.8-23.9c2.29-4.1,4.7-8.13,7.23-12.07l44.97,28.74    C159.45,206.5,157.98,208.91,156.57,211.36z"
   id="path108" />
		<path
   class="st0"
   d="M380.17,93.03c0,0,0,0.05,0,0.13V93.03z"
   id="path110" />
		<path
   class="st0"
   d="M411.68,88.58v37.18l13.77-20.25c4.05,2.52,8.02,5.15,11.9,7.91l-33.49,41.64c-2.75-1.89-5.55-3.7-8.41-5.43    l13.59-19.98h-12.47c0,0.7,0,1.48,0,2.25c0,2.25-1.03,2.74-1.03,2.74s-7.18,6.94-10.23,9.9v11.43h26.38v5.87l51.86-28.73    c0.68-0.38,1.53-0.26,2.08,0.3l12.72,12.89c0.59,0.6,0.66,1.53,0.18,2.21l-36.47,51.28c-0.72,1.01-2.21,0.96-2.87-0.08    c-6.85-10.79-19.94-23.08-27.49-29.74v10.33c25.03,22.8,42.64,53.56,48.74,88.29c20.1,1.81,47.62,5.13,78.08,11.13    C532.79,196.14,482.76,124.71,411.68,88.58z M450.16,132.85l-35.31,20.41c-0.21,0.12-0.42-0.14-0.27-0.32l24.68-28.75    c0.55-0.64,1.52-0.72,2.17-0.18l8.85,7.4C450.76,131.8,450.69,132.54,450.16,132.85z M454.3,194.2l24.12-32.83    c0.36-0.5,1.11-0.48,1.45,0.03l6.43,9.56c0.47,0.7,0.29,1.66-0.41,2.13l-31.3,21.4C454.4,194.63,454.16,194.39,454.3,194.2z     M455.93,211.36c-1.41-2.45-2.88-4.86-4.41-7.23l44.97-28.74c2.54,3.94,4.94,7.97,7.23,12.07L455.93,211.36z M460.5,219.85    l47.75-23.88c2.14,4.24,4.15,8.56,6.03,12.95l-49.75,19.52C463.26,225.53,461.92,222.67,460.5,219.85z M467.51,235.72l49.71-19.51    c1.73,4.49,3.34,9.05,4.78,13.68l-51.73,13.63C469.41,240.89,468.49,238.29,467.51,235.72z M472.27,250.01l51.65-13.6    c1.35,4.83,2.55,9.72,3.57,14.68l-52.9,8.11C473.9,256.1,473.13,253.04,472.27,250.01z M528.77,257.74    c0.98,5.55,1.75,11.17,2.32,16.86l-51.88-8.4L528.77,257.74z"
   id="path112" />
		<path
   class="st0"
   d="M229.46,162.29H207.4v50.27c0,0-0.69,20.91,25.66,20.91s26.85-11.31,26.85-20.79v-53.36    c0,0,1.45-9.48-12.99-17.25s-17.47-9.03-17.47-19.88V89.28c0,0-0.13-5.42,4.22-5.31c4.35,0.11,4.18,5.65,4.18,5.65v32.68h22.06    l0.04-38.39c0,0,1.37-17.71-26.28-17.59S207.4,84.03,207.4,84.03v45.25c0,0-0.11,13.48,11.92,20.62    c12.03,7.14,18.54,6.91,18.54,16.74v42.96c0,0,0.46,6.74-4.18,6.62c-4.38-0.12-4.22-1.29-4.22-6.96V162.29z"
   id="path114" />
		<path
   class="st0"
   d="M329.23,83.17v39.08h-17.85V93.28c0,0,0.43-5.2-4.24-5.2c0,0-4.16-0.68-4.16,5.31v110.2    c0,0-0.31,6.69,4.05,6.68c4.35,0,4.35-6.63,4.35-6.63v-35.53c0,0,0.06-1.57-1.58-1.57h-2.21v-19.82h21.64v83.32h-7.14l-2.46-7.31    c0,0-0.92-1.71-1.89,0.46s-3.81,8.8-14.76,9.6s-19.95-6.05-19.95-17.6v-133c0,0-1.74-15.31,23.11-15.31    C330.97,66.89,329.23,83.17,329.23,83.17z"
   id="path116" />
		<path
   class="st0"
   d="M358.64,81.89v137.19c0,0-0.49,13.37,23.74,13.37c24.23,0,22.47-13.11,22.47-13.11v-56.56H387v43.36    c0,0,0.35,4.01-4.03,4.01s-4.5-4.49-4.5-4.49V93.2c0,0,0.16-5.14,4.34-5.14s4.18,4.97,4.18,4.97v29.82h17.85V81.89    c0,0,1.62-15-22.3-15S358.64,81.89,358.64,81.89z"
   id="path118" />
	</g>
</g>
<path
   inkscape:connector-curvature="0"
   class="st0"
   d="M 50.48,285.02 C 55.29,175.28 129.54,83.51 230.51,52.35 L 226.47,41.3 C 120.23,74.34 42.41,171.57 38.61,287.47 c 3.98,-0.85 7.94,-1.66 11.87,-2.45 z"
   id="path6-6"
   style="fill:#000000;fill-opacity:1" /><path
   inkscape:connector-curvature="0"
   class="st0"
   d="m 562.16,285.03 c 3.93,0.79 7.89,1.6 11.87,2.45 C 570.22,171.29 492.02,73.87 385.39,41.07 l -4.04,11.06 C 482.71,83.05 557.34,175 562.16,285.03 Z"
   id="path8-4"
   style="fill:#000000;fill-opacity:1" /><path
   inkscape:connector-curvature="0"
   class="st0"
   d="m 562.25,304.11 c -2.34,78.03 -39.73,147.27 -97.06,192.55 l 5.95,10.28 C 531.96,459.53 571.67,386.49 574.03,304.11 Z"
   id="path10-6"
   style="fill:#000000;fill-opacity:1" /><path
   inkscape:connector-curvature="0"
   class="st0"
   d="m 50.38,304.09 h -11.8 c 2.37,82.83 42.52,156.21 103.89,203.6 l 5.94,-10.26 C 90.54,452.17 52.73,382.57 50.38,304.09 Z"
   id="path12-4"
   style="fill:#000000;fill-opacity:1" /><polygon
   class="st0"
   points="306.32,34.5 370.44,34.5 382.99,27.47 306.32,27.47 306.01,27.47 229.34,27.47 241.89,34.5 306.01,34.5 "
   id="polygon14-3"
   style="fill:#000000;fill-opacity:1" /><polygon
   class="st0"
   points="241.55,42.38 248.94,61.58 241.2,59.86 231.41,33.3 "
   id="polygon16-9"
   style="fill:#000000;fill-opacity:1" /><polygon
   class="st0"
   points="370.08,42.38 362.69,61.58 370.42,59.86 380.22,33.3 "
   id="polygon18-6"
   style="fill:#000000;fill-opacity:1" /><path
   inkscape:connector-curvature="0"
   class="st0"
   d="m 200.58,84.18 c -0.07,-1.83 0.08,-8.92 5.89,-15.2 0.09,-0.1 0.19,-0.19 0.29,-0.29 -84.43,36.59 -144.66,118.27 -150.09,214.56 3.94,-0.88 7.84,-1.71 11.7,-2.5 6.02,-86.36 58.26,-160 132.21,-196.53 z"
   id="path20-6"
   style="fill:#000000;fill-opacity:1" /><path
   inkscape:connector-curvature="0"
   class="st0"
   d="m 382.56,60.48 c 0.59,0 1.17,0.01 1.74,0.03 -1.71,-0.56 -3.42,-1.1 -5.15,-1.63 l -0.59,1.74 c 1.28,-0.09 2.61,-0.14 4,-0.14 z"
   id="path22-7"
   style="fill:#000000;fill-opacity:1" /><path
   inkscape:connector-curvature="0"
   class="st0"
   d="m 406.6,69.01 c 4.68,5.35 4.78,11.28 4.68,13.09 v 1.75 c 74.42,36.44 127.02,110.39 132.98,197.14 3.85,0.76 7.76,1.57 11.69,2.42 C 550.59,187.32 490.68,105.77 406.6,69.01 Z"
   id="path24-8"
   style="fill:#000000;fill-opacity:1" /><path
   inkscape:connector-curvature="0"
   class="st0"
   d="m 454.52,153.82 c -0.56,-0.53 -1.41,-0.62 -2.07,-0.23 l -25.46,14.97 c -1.04,0.61 -1.15,2.06 -0.22,2.82 2.56,2.1 7.08,6.02 10.02,9.82 0.7,0.9 2.06,0.89 2.75,-0.02 l 17.35,-23.03 c 0.53,-0.7 0.45,-1.69 -0.19,-2.29 z"
   id="path26-4"
   style="fill:#000000;fill-opacity:1" /><path
   inkscape:connector-curvature="0"
   class="st0"
   d="m 184.95,168.56 -25.46,-14.97 c -0.67,-0.39 -1.51,-0.3 -2.07,0.23 l -2.17,2.04 c -0.64,0.6 -0.72,1.59 -0.19,2.29 l 17.35,23.03 c 0.69,0.91 2.05,0.92 2.75,0.02 2.94,-3.81 7.46,-7.73 10.02,-9.82 0.93,-0.76 0.81,-2.21 -0.23,-2.82 z"
   id="path28-4"
   style="fill:#000000;fill-opacity:1" /><polygon
   class="st0"
   points="266.18,127.1 275.69,154.41 275.69,139.1 266.18,110.76 "
   id="polygon30-7"
   style="fill:#000000;fill-opacity:1" /><polygon
   class="st0"
   points="351.88,110.76 336.41,154.41 336.41,138.47 351.88,92.71 "
   id="polygon32-8"
   style="fill:#000000;fill-opacity:1" /><polygon
   class="st0"
   points="203.51,513.29 236.96,556.94 131.56,556.94 "
   id="polygon34-0"
   style="fill:#000000;fill-opacity:1" /><polyline
   class="st0"
   points="410.77,513.29 377.32,556.94 482.73,556.94   "
   id="polyline36-9"
   style="fill:#000000;fill-opacity:1" /><polygon
   class="st0"
   points="276.15,474.9 259.96,431.51 247.27,452.51 261.94,502.78 "
   id="polygon38-9"
   style="fill:#000000;fill-opacity:1" /><polygon
   class="st0"
   points="337.6,474.9 353.79,431.51 366.47,452.51 351.81,502.78 "
   id="polygon40-8"
   style="fill:#000000;fill-opacity:1" /><polygon
   class="st0"
   points="268.79,504.1 279.53,483.61 334.17,483.61 344.9,504.1 "
   id="polygon42-8"
   style="fill:#000000;fill-opacity:1" /><polygon
   class="st0"
   points="255.29,511.23 359.12,511.23 374.24,464.39 401.05,507.13 344.56,584.82 269.85,584.82 213.36,507.13 240.17,464.39 "
   id="polygon44-0"
   style="fill:#000000;fill-opacity:1" /><polygon
   class="st0"
   points="344.51,419.03 329.96,462.45 282.68,462.45 268.12,419.03 306.32,355.85 "
   id="polygon46-3"
   style="fill:#000000;fill-opacity:1" /><polygon
   class="st0"
   points="300.9,346.36 207.52,498.32 128.46,545.51 300.9,252.56 "
   id="polygon48-3"
   style="fill:#000000;fill-opacity:1" /><polygon
   class="st0"
   points="312.26,346.36 405.64,498.32 484.69,545.51 312.26,252.56 "
   id="polygon50-1"
   style="fill:#000000;fill-opacity:1" /><polygon
   class="st0"
   points="242,337.35 207.75,261.58 287.26,261.58 "
   id="polygon52-1"
   style="fill:#000000;fill-opacity:1" /><polygon
   class="st0"
   points="370.64,337.35 404.89,261.58 325.38,261.58 "
   id="polygon54-7"
   style="fill:#000000;fill-opacity:1" /><polygon
   class="st0"
   points="175.78,304.32 71.98,304.32 79.7,315.67 180.17,315.67 "
   id="polygon56-4"
   style="fill:#000000;fill-opacity:1" /><polygon
   class="st0"
   points="182.1,320.66 69.11,320.66 76.9,332.36 186.63,332.36 "
   id="polygon58-2"
   style="fill:#000000;fill-opacity:1" /><polygon
   class="st0"
   points="188.56,337.35 94.47,337.35 102.52,349.18 193.13,349.18 "
   id="polygon60-7"
   style="fill:#000000;fill-opacity:1" /><polygon
   class="st0"
   points="195.07,354.17 94.47,354.17 102.34,365.94 199.62,365.94 "
   id="polygon62-7"
   style="fill:#000000;fill-opacity:1" /><polygon
   class="st0"
   points="201.55,370.94 117.33,370.94 125.54,383 206.21,383 "
   id="polygon64-1"
   style="fill:#000000;fill-opacity:1" /><polygon
   class="st0"
   points="205.13,399.7 209.81,392.29 208.15,387.99 118.26,387.99 126.63,399.7 "
   id="polygon66-9"
   style="fill:#000000;fill-opacity:1" /><polygon
   class="st0"
   points="148.28,416.4 194.57,416.4 201.97,404.7 140.31,404.7 "
   id="polygon68-0"
   style="fill:#000000;fill-opacity:1" /><polygon
   class="st0"
   points="151.15,433.16 185.12,433.16 192.52,421.46 143.01,421.46 "
   id="polygon70-9"
   style="fill:#000000;fill-opacity:1" /><polygon
   class="st0"
   points="171.14,449.92 174.62,449.92 182.01,438.21 163.64,438.21 "
   id="polygon72-6"
   style="fill:#000000;fill-opacity:1" /><polygon
   class="st0"
   points="169.14,460.62 167.73,460.62 163.64,454.68 172.11,454.68 "
   id="polygon74-2"
   style="fill:#000000;fill-opacity:1" /><polygon
   class="st0"
   points="438.18,304.32 541.98,304.32 534.25,315.67 433.79,315.67 "
   id="polygon76-2"
   style="fill:#000000;fill-opacity:1" /><polygon
   class="st0"
   points="431.85,320.66 544.85,320.66 537.05,332.36 427.33,332.36 "
   id="polygon78-6"
   style="fill:#000000;fill-opacity:1" /><polygon
   class="st0"
   points="425.4,337.35 519.49,337.35 511.44,349.18 420.83,349.18 "
   id="polygon80-2"
   style="fill:#000000;fill-opacity:1" /><polygon
   class="st0"
   points="418.89,354.17 519.49,354.17 511.62,365.94 414.34,365.94 "
   id="polygon82-6"
   style="fill:#000000;fill-opacity:1" /><polygon
   class="st0"
   points="412.41,370.94 496.63,370.94 488.42,383 407.74,383 "
   id="polygon84-3"
   style="fill:#000000;fill-opacity:1" /><polygon
   class="st0"
   points="408.83,399.7 404.15,392.29 405.81,387.99 495.69,387.99 487.33,399.7 "
   id="polygon86-6"
   style="fill:#000000;fill-opacity:1" /><polygon
   class="st0"
   points="465.68,416.4 419.39,416.4 411.99,404.7 473.64,404.7 "
   id="polygon88-0"
   style="fill:#000000;fill-opacity:1" /><polygon
   class="st0"
   points="462.81,433.16 428.84,433.16 421.44,421.46 470.95,421.46 "
   id="polygon90-6"
   style="fill:#000000;fill-opacity:1" /><polygon
   class="st0"
   points="442.82,449.92 439.34,449.92 431.94,438.21 450.32,438.21 "
   id="polygon92-5"
   style="fill:#000000;fill-opacity:1" /><polygon
   class="st0"
   points="444.82,460.62 446.23,460.62 450.32,454.68 441.84,454.68 "
   id="polygon94-8"
   style="fill:#000000;fill-opacity:1" /><polyline
   class="st0"
   points="200.3,306.26 185.52,306.26 196.24,333.45 224.59,333.45 218.75,319.17 205.92,318.95 200.3,306.26       "
   id="polyline96-8"
   style="fill:#000000;fill-opacity:1" /><polygon
   class="st0"
   points="232.15,354.17 219.09,354.17 214.01,341.22 199.31,341.22 209.81,367.84 224.13,367.84 "
   id="polygon98-4"
   style="fill:#000000;fill-opacity:1" /><polyline
   class="st0"
   points="412.72,306.26 427.5,306.26 416.78,333.45 388.43,333.45 394.28,319.17 407.1,318.95 412.72,306.26       "
   id="polyline100-6"
   style="fill:#000000;fill-opacity:1" /><polygon
   class="st0"
   points="380.87,354.17 393.93,354.17 399.01,341.22 413.71,341.22 403.21,367.84 388.89,367.84 "
   id="polygon102-2"
   style="fill:#000000;fill-opacity:1" /><path
   inkscape:connector-curvature="0"
   class="st0"
   d="m 24.31,297.57 h 171.17 l -10.83,-24.85 c 0.01,0 -78.19,1.72 -160.34,24.85 z"
   id="path104-5"
   style="fill:#000000;fill-opacity:1" /><path
   inkscape:connector-curvature="0"
   class="st0"
   d="M 588.29,297.57 H 417.12 l 10.83,-24.85 c -0.01,0 78.19,1.72 160.34,24.85 z"
   id="path106-1"
   style="fill:#000000;fill-opacity:1" /><path
   inkscape:connector-curvature="0"
   class="st0"
   d="m 200.58,169.69 c -7.5,6.6 -20.86,19.08 -27.81,30.02 -0.66,1.04 -2.16,1.09 -2.87,0.08 l -36.47,-51.28 c -0.49,-0.68 -0.41,-1.62 0.18,-2.21 l 12.72,-12.89 c 0.55,-0.55 1.4,-0.68 2.08,-0.3 l 52.17,28.9 v -6.53 h 14.82 c -1.3,-0.8 -2.47,-1.65 -3.55,-2.55 -1.07,0.7 -2.14,1.41 -3.2,2.13 l -33.49,-41.64 c 3.87,-2.76 7.85,-5.39 11.9,-7.91 l 13.52,19.88 V 88.45 C 129.44,124.49 79.34,195.87 73.52,279.42 c 30.63,-5.97 58.2,-9.21 78.09,-10.97 6.15,-34.79 23.84,-65.6 48.97,-88.39 z m -38.59,-38.28 8.85,-7.4 c 0.65,-0.54 1.62,-0.46 2.17,0.18 l 24.68,28.75 c 0.15,0.18 -0.06,0.44 -0.27,0.32 l -35.31,-20.41 c -0.52,-0.31 -0.59,-1.05 -0.12,-1.44 z m -36.02,39.55 6.43,-9.56 c 0.34,-0.51 1.09,-0.53 1.45,-0.03 l 24.12,32.83 c 0.14,0.19 -0.09,0.43 -0.29,0.3 l -31.3,-21.4 c -0.7,-0.48 -0.88,-1.43 -0.41,-2.14 z M 81.41,274.59 c 0.56,-5.68 1.34,-11.31 2.32,-16.86 l 49.57,8.45 z m 56.5,-15.4 -52.9,-8.11 c 1.03,-4.95 2.23,-9.85 3.57,-14.68 l 51.65,13.6 c -0.86,3.04 -1.63,6.1 -2.32,9.19 z M 142.23,243.52 90.5,229.9 c 1.45,-4.63 3.05,-9.19 4.78,-13.68 l 49.71,19.51 c -0.98,2.56 -1.9,5.16 -2.76,7.79 z m 5.74,-15.08 -49.75,-19.52 c 1.87,-4.39 3.89,-8.71 6.03,-12.95 L 152,219.85 c -1.42,2.82 -2.76,5.68 -4.03,8.59 z m 8.6,-17.08 -47.8,-23.9 c 2.29,-4.1 4.7,-8.13 7.23,-12.07 l 44.97,28.74 c -1.52,2.37 -2.99,4.78 -4.4,7.23 z"
   id="path108-1"
   style="fill:#000000;fill-opacity:1" /><path
   inkscape:connector-curvature="0"
   class="st0"
   d="m 411.68,88.58 v 37.18 l 13.77,-20.25 c 4.05,2.52 8.02,5.15 11.9,7.91 l -33.49,41.64 c -2.75,-1.89 -5.55,-3.7 -8.41,-5.43 l 13.59,-19.98 h -12.47 c 0,0.7 0,1.48 0,2.25 0,2.25 -1.03,2.74 -1.03,2.74 0,0 -7.18,6.94 -10.23,9.9 v 11.43 h 26.38 v 5.87 l 51.86,-28.73 c 0.68,-0.38 1.53,-0.26 2.08,0.3 l 12.72,12.89 c 0.59,0.6 0.66,1.53 0.18,2.21 l -36.47,51.28 c -0.72,1.01 -2.21,0.96 -2.87,-0.08 -6.85,-10.79 -19.94,-23.08 -27.49,-29.74 v 10.33 c 25.03,22.8 42.64,53.56 48.74,88.29 20.1,1.81 47.62,5.13 78.08,11.13 C 532.79,196.14 482.76,124.71 411.68,88.58 Z m 38.48,44.27 -35.31,20.41 c -0.21,0.12 -0.42,-0.14 -0.27,-0.32 l 24.68,-28.75 c 0.55,-0.64 1.52,-0.72 2.17,-0.18 l 8.85,7.4 c 0.48,0.39 0.41,1.13 -0.12,1.44 z m 4.14,61.35 24.12,-32.83 c 0.36,-0.5 1.11,-0.48 1.45,0.03 l 6.43,9.56 c 0.47,0.7 0.29,1.66 -0.41,2.13 l -31.3,21.4 c -0.19,0.14 -0.43,-0.1 -0.29,-0.29 z m 1.63,17.16 c -1.41,-2.45 -2.88,-4.86 -4.41,-7.23 l 44.97,-28.74 c 2.54,3.94 4.94,7.97 7.23,12.07 z m 4.57,8.49 47.75,-23.88 c 2.14,4.24 4.15,8.56 6.03,12.95 l -49.75,19.52 c -1.27,-2.91 -2.61,-5.77 -4.03,-8.59 z m 7.01,15.87 49.71,-19.51 c 1.73,4.49 3.34,9.05 4.78,13.68 l -51.73,13.63 c -0.86,-2.63 -1.78,-5.23 -2.76,-7.8 z m 4.76,14.29 51.65,-13.6 c 1.35,4.83 2.55,9.72 3.57,14.68 l -52.9,8.11 c -0.69,-3.1 -1.46,-6.16 -2.32,-9.19 z m 56.5,7.73 c 0.98,5.55 1.75,11.17 2.32,16.86 l -51.88,-8.4 z"
   id="path112-7"
   style="fill:#000000;fill-opacity:1" /><path
   inkscape:connector-curvature="0"
   class="st0"
   d="M 229.46,162.29 H 207.4 v 50.27 c 0,0 -0.69,20.91 25.66,20.91 26.35,0 26.85,-11.31 26.85,-20.79 v -53.36 c 0,0 1.45,-9.48 -12.99,-17.25 -14.44,-7.77 -17.47,-9.03 -17.47,-19.88 V 89.28 c 0,0 -0.13,-5.42 4.22,-5.31 4.35,0.11 4.18,5.65 4.18,5.65 v 32.68 h 22.06 l 0.04,-38.39 c 0,0 1.37,-17.71 -26.28,-17.59 -27.65,0.12 -26.27,17.71 -26.27,17.71 v 45.25 c 0,0 -0.11,13.48 11.92,20.62 12.03,7.14 18.54,6.91 18.54,16.74 v 42.96 c 0,0 0.46,6.74 -4.18,6.62 -4.38,-0.12 -4.22,-1.29 -4.22,-6.96 z"
   id="path114-3"
   style="fill:#000000;fill-opacity:1" /><path
   inkscape:connector-curvature="0"
   class="st0"
   d="m 329.23,83.17 v 39.08 H 311.38 V 93.28 c 0,0 0.43,-5.2 -4.24,-5.2 0,0 -4.16,-0.68 -4.16,5.31 v 110.2 c 0,0 -0.31,6.69 4.05,6.68 4.35,0 4.35,-6.63 4.35,-6.63 v -35.53 c 0,0 0.06,-1.57 -1.58,-1.57 h -2.21 v -19.82 h 21.64 v 83.32 h -7.14 l -2.46,-7.31 c 0,0 -0.92,-1.71 -1.89,0.46 -0.97,2.17 -3.81,8.8 -14.76,9.6 -10.95,0.8 -19.95,-6.05 -19.95,-17.6 v -133 c 0,0 -1.74,-15.31 23.11,-15.31 24.83,0.01 23.09,16.29 23.09,16.29 z"
   id="path116-9"
   style="fill:#000000;fill-opacity:1" /><path
   inkscape:connector-curvature="0"
   class="st0"
   d="m 358.64,81.89 v 137.19 c 0,0 -0.49,13.37 23.74,13.37 24.23,0 22.47,-13.11 22.47,-13.11 V 162.78 H 387 v 43.36 c 0,0 0.35,4.01 -4.03,4.01 -4.38,0 -4.5,-4.49 -4.5,-4.49 V 93.2 c 0,0 0.16,-5.14 4.34,-5.14 4.18,0 4.18,4.97 4.18,4.97 v 29.82 h 17.85 V 81.89 c 0,0 1.62,-15 -22.3,-15 -23.92,0 -23.9,15 -23.9,15 z"
   id="path118-5"
   style="fill:#000000;fill-opacity:1" /></svg>